<?xml version="1.0" standalone="no"?>
<!DOCTYPE svg PUBLIC "-//W3C//DTD SVG 20010904//EN"
 "http://www.w3.org/TR/2001/REC-SVG-20010904/DTD/svg10.dtd">
<svg version="1.0" xmlns="http://www.w3.org/2000/svg"
 width="400.000000pt" height="400.000000pt" viewBox="0 0 400.000000 400.000000"
 preserveAspectRatio="xMidYMid meet">
<metadata>
Created by potrace 1.11, written by Peter Selinger 2001-2013
</metadata>
<g transform="translate(0.000000,400.000000) scale(0.100000,-0.100000)"
fill="#000000" stroke="none">
<path d="M1730 3985 c-756 -106 -1395 -636 -1630 -1353 -72 -219 -99 -392 -98
-627 1 -179 7 -259 33 -390 30 -147 103 -374 141 -432 8 -13 12 -23 10 -23 -3
0 11 -28 30 -62 19 -35 40 -75 45 -90 6 -16 15 -28 20 -28 5 0 9 -5 9 -11 0
-12 80 -133 92 -137 4 -2 8 -8 8 -14 0 -5 6 -15 13 -22 6 -7 23 -28 37 -46 14
-19 48 -57 77 -87 28 -29 49 -53 46 -53 -2 0 2 -7 11 -15 8 -8 17 -15 21 -15
12 0 34 -27 28 -34 -4 -3 -1 -6 6 -6 6 0 27 -16 45 -35 19 -19 38 -35 42 -35
4 0 21 -15 37 -32 17 -18 26 -27 22 -19 -5 8 11 -1 36 -20 24 -19 45 -37 47
-41 2 -5 10 -8 18 -8 8 0 14 -4 14 -10 0 -5 7 -10 15 -10 9 0 18 -7 21 -15 4
-8 10 -12 15 -10 4 3 17 -3 29 -15 11 -11 21 -20 23 -20 23 -3 46 -14 41 -21
-3 -5 3 -6 12 -2 12 4 15 3 10 -6 -4 -6 -4 -10 1 -9 13 3 53 -12 53 -21 0 -4
6 -8 13 -8 6 0 41 -14 77 -32 36 -18 66 -32 67 -32 11 2 63 -13 63 -18 0 -4
10 -8 22 -8 13 -1 24 -6 26 -11 2 -6 12 -7 24 -4 13 3 19 1 15 -5 -5 -7 0 -9
13 -6 11 3 20 1 20 -3 0 -5 17 -10 38 -12 20 -1 38 -6 40 -11 2 -5 12 -6 24
-3 12 3 19 1 15 -5 -4 -5 6 -8 24 -5 16 2 29 0 29 -5 0 -6 11 -8 25 -5 14 2
25 0 25 -5 0 -5 18 -7 40 -5 22 2 40 0 40 -5 0 -5 23 -8 50 -7 28 2 49 0 46
-4 -2 -4 67 -7 155 -7 87 0 159 3 159 7 0 4 17 6 38 5 20 -1 43 2 51 7 11 7
12 6 6 -5 -7 -12 -6 -12 7 -1 8 6 26 12 39 12 46 0 84 5 89 12 3 4 21 9 41 11
19 2 39 6 44 9 6 3 18 4 28 3 10 -2 14 1 10 7 -4 7 2 9 15 6 12 -4 22 -2 22 4
0 6 6 8 14 5 8 -3 16 -2 18 3 2 5 17 11 33 14 17 2 32 5 35 6 3 1 8 2 13 1 4
0 7 4 7 10 0 6 9 9 20 6 11 -3 18 -1 15 3 -5 8 51 25 58 18 2 -2 11 5 21 14 9
10 24 14 33 11 10 -4 14 -2 10 4 -4 6 6 16 23 22 17 5 30 7 30 4 0 -4 6 0 13
9 6 9 21 18 32 20 11 2 25 10 32 18 7 8 13 11 13 7 0 -5 7 -1 16 7 8 9 20 14
25 11 5 -4 9 -2 9 3 0 4 18 20 40 35 23 14 38 21 34 14 -4 -7 5 0 21 15 15 16
33 28 40 28 7 0 16 7 19 16 3 8 10 13 14 10 5 -3 15 4 22 15 8 10 17 19 21 19
8 0 67 50 122 105 23 22 35 31 28 20 -8 -11 2 -2 22 20 20 22 36 44 37 48 0 5
5 5 10 2 6 -3 10 -2 10 4 0 6 12 23 28 39 52 55 92 104 92 113 0 5 3 9 8 9 4
0 27 30 52 67 25 38 47 70 50 73 3 3 11 16 18 30 13 27 34 62 42 70 13 13 93
187 124 271 90 244 118 393 122 659 3 224 -4 306 -42 479 -94 420 -329 809
-659 1088 -283 240 -624 395 -998 452 -144 22 -431 25 -567 6z"/>
</g>
</svg>
